<svg width="120" height="120" viewBox="0 0 120 120" fill="none" xmlns="http://www.w3.org/2000/svg">
<g id="Frame 1" clip-path="url(#clip0)">
<rect width="120" height="120" fill="white"/>
<g id="triangles">
<g id="lightGroup">
<g id="light" opacity="0.7" filter="url(#filter0_d)">
<path d="M76.8766 58.768C78.21 59.5378 78.21 61.4623 76.8766 62.2321L6.68345 102.758C5.35011 103.528 3.68344 102.566 3.68344 101.026L3.68345 19.974C3.68345 18.4344 5.35012 17.4721 6.68345 18.2419L76.8766 58.768Z" fill="#009DFF"/>
</g>
</g>
<g id="darkGroup">
<g id="dark1" opacity="0.7" filter="url(#filter1_d)">
<path d="M103 58.768C104.333 59.5378 104.333 61.4623 103 62.2321L32.8068 102.758C31.4735 103.528 29.8068 102.566 29.8068 101.026L29.8068 19.974C29.8068 18.4344 31.4735 17.4721 32.8068 18.2419L103 58.768Z" fill="#006DFF"/>
</g>
<g id="dark2" opacity="0.7" filter="url(#filter2_d)">
<path d="M76.8766 58.768C78.21 59.5378 78.21 61.4623 76.8766 62.2321L6.68345 102.758C5.35011 103.528 3.68344 102.566 3.68344 101.026L3.68345 19.974C3.68345 18.4344 5.35012 17.4721 6.68345 18.2419L76.8766 58.768Z" fill="#006DFF"/>
</g>
</g>
</g>
</g>
<defs>
<filter id="filter0_d" x="-0.316555" y="17.971" width="82.1932" height="93.0581" filterUnits="userSpaceOnUse" color-interpolation-filters="sRGB">
<feFlood flood-opacity="0" result="BackgroundImageFix"/>
<feColorMatrix in="SourceAlpha" type="matrix" values="0 0 0 0 0 0 0 0 0 0 0 0 0 0 0 0 0 0 127 0"/>
<feOffset dy="4"/>
<feGaussianBlur stdDeviation="2"/>
<feColorMatrix type="matrix" values="0 0 0 0 0 0 0 0 0 0 0 0 0 0 0 0 0 0 0.25 0"/>
<feBlend mode="normal" in2="BackgroundImageFix" result="effect1_dropShadow"/>
<feBlend mode="normal" in="SourceGraphic" in2="effect1_dropShadow" result="shape"/>
</filter>
<filter id="filter1_d" x="25.8068" y="17.971" width="82.1932" height="93.0581" filterUnits="userSpaceOnUse" color-interpolation-filters="sRGB">
<feFlood flood-opacity="0" result="BackgroundImageFix"/>
<feColorMatrix in="SourceAlpha" type="matrix" values="0 0 0 0 0 0 0 0 0 0 0 0 0 0 0 0 0 0 127 0"/>
<feOffset dy="4"/>
<feGaussianBlur stdDeviation="2"/>
<feColorMatrix type="matrix" values="0 0 0 0 0 0 0 0 0 0 0 0 0 0 0 0 0 0 0.25 0"/>
<feBlend mode="normal" in2="BackgroundImageFix" result="effect1_dropShadow"/>
<feBlend mode="normal" in="SourceGraphic" in2="effect1_dropShadow" result="shape"/>
</filter>
<filter id="filter2_d" x="-0.316555" y="17.971" width="82.1932" height="93.0581" filterUnits="userSpaceOnUse" color-interpolation-filters="sRGB">
<feFlood flood-opacity="0" result="BackgroundImageFix"/>
<feColorMatrix in="SourceAlpha" type="matrix" values="0 0 0 0 0 0 0 0 0 0 0 0 0 0 0 0 0 0 127 0"/>
<feOffset dy="4"/>
<feGaussianBlur stdDeviation="2"/>
<feColorMatrix type="matrix" values="0 0 0 0 0 0 0 0 0 0 0 0 0 0 0 0 0 0 0.25 0"/>
<feBlend mode="normal" in2="BackgroundImageFix" result="effect1_dropShadow"/>
<feBlend mode="normal" in="SourceGraphic" in2="effect1_dropShadow" result="shape"/>
</filter>
<clipPath id="clip0">
<rect width="120" height="120" fill="white"/>
</clipPath>
</defs>
</svg>
