<svg width="120" height="121" viewBox="0 0 120 121" fill="none" xmlns="http://www.w3.org/2000/svg">
<rect width="120" height="121" fill="#E5E5E5"/>
<g id="phonecall">
<rect width="120" height="121" fill="white"/>
<g id="phone-call 1">
<g id="Group">
<g id="Group_2">
<path id="Vector" d="M102.026 77.5006C95.7961 77.5006 89.6937 76.5278 83.9101 74.6193C81.0874 73.6465 77.882 74.3961 76.0268 76.2886L64.5607 84.948C51.4041 77.9259 42.9839 69.5109 36.0575 56.45L44.4829 45.255C46.6039 43.134 47.3642 40.0295 46.4552 37.1218C44.5308 31.301 43.5527 25.1932 43.5527 18.9737C43.5527 14.5774 39.9753 11 35.5791 11H16.9737C12.5774 11 9 14.5774 9 18.9737C9 70.2657 50.7343 112 102.026 112C106.423 112 110 108.423 110 104.026V85.4743C110 81.078 106.423 77.5006 102.026 77.5006Z" fill="black"/>
</g>
</g>
</g>
</g>
</svg>
